<svg width="16" height="16" viewBox="0 0 16 16" fill="none" xmlns="http://www.w3.org/2000/svg">
<g clip-path="url(#clip0_217_6833)">
<path d="M6.66663 2.66669L7.99996 3.33335L9.33329 2.66669" stroke="#1BE3D7" stroke-linecap="round" stroke-linejoin="round"/>
<path d="M8 1.33331V5.66665L10 6.81331" stroke="#1BE3D7" stroke-linecap="round" stroke-linejoin="round"/>
<path d="M11.952 4.17865L12.0414 5.66665L13.2854 6.48798" stroke="#1BE3D7" stroke-linecap="round" stroke-linejoin="round"/>
<path d="M13.7733 4.66669L10.0206 6.83335L10.0273 9.13869" stroke="#1BE3D7" stroke-linecap="round" stroke-linejoin="round"/>
<path d="M13.2854 9.51202L12.0414 10.3334L11.952 11.8214" stroke="#1BE3D7" stroke-linecap="round" stroke-linejoin="round"/>
<path d="M13.7733 11.3334L10.0207 9.16669L8.02734 10.3254" stroke="#1BE3D7" stroke-linecap="round" stroke-linejoin="round"/>
<path d="M9.33329 13.3334L7.99996 12.6667L6.66663 13.3334" stroke="#1BE3D7" stroke-linecap="round" stroke-linejoin="round"/>
<path d="M8 14.6666V10.3333L6 9.18665" stroke="#1BE3D7" stroke-linecap="round" stroke-linejoin="round"/>
<path d="M4.04806 11.8214L3.95872 10.3334L2.71472 9.51202" stroke="#1BE3D7" stroke-linecap="round" stroke-linejoin="round"/>
<path d="M2.22668 11.3333L5.97935 9.16666L5.97268 6.86133" stroke="#1BE3D7" stroke-linecap="round" stroke-linejoin="round"/>
<path d="M2.71472 6.48798L3.95872 5.66665L4.04806 4.17865" stroke="#1BE3D7" stroke-linecap="round" stroke-linejoin="round"/>
<path d="M2.22668 4.66669L5.97935 6.83335L7.97268 5.67469" stroke="#1BE3D7" stroke-linecap="round" stroke-linejoin="round"/>
</g>
<defs>
<clipPath id="clip0_217_6833">
<rect width="16" height="16" fill="white"/>
</clipPath>
</defs>
</svg>
