<svg width="16" height="16" viewBox="0 0 16 16" fill="none" xmlns="http://www.w3.org/2000/svg">
<g clip-path="url(#clip0_217_6869)">
<path d="M6.66671 9C6.15833 9.29351 5.76101 9.74657 5.53636 10.2889C5.31172 10.8313 5.27231 11.4326 5.42424 11.9996C5.57617 12.5666 5.91096 13.0677 6.37668 13.425C6.8424 13.7824 7.41302 13.9761 8.00004 13.9761C8.58707 13.9761 9.15769 13.7824 9.62341 13.425C10.0891 13.0677 10.4239 12.5666 10.5758 11.9996C10.7278 11.4326 10.6884 10.8313 10.4637 10.2889C10.2391 9.74657 9.84175 9.29351 9.33338 9V3.33333C9.33338 2.97971 9.1929 2.64057 8.94285 2.39052C8.6928 2.14048 8.35366 2 8.00004 2C7.64642 2 7.30728 2.14048 7.05723 2.39052C6.80718 2.64057 6.66671 2.97971 6.66671 3.33333V9Z" stroke="#F3C318" stroke-linecap="round" stroke-linejoin="round"/>
<path d="M6.66663 6H9.33329" stroke="#F3C318" stroke-linecap="round" stroke-linejoin="round"/>
</g>
<defs>
<clipPath id="clip0_217_6869">
<rect width="16" height="16" fill="white"/>
</clipPath>
</defs>
</svg>
